<?xml version="1.0" standalone="no"?>
<!DOCTYPE svg PUBLIC "-//W3C//DTD SVG 20010904//EN"
 "http://www.w3.org/TR/2001/REC-SVG-20010904/DTD/svg10.dtd">
<svg version="1.0" xmlns="http://www.w3.org/2000/svg"
 width="512.000000pt" height="512.000000pt" viewBox="0 0 512.000000 512.000000"
 preserveAspectRatio="xMidYMid meet">
<metadata>
Created by potrace 1.11, written by Peter Selinger 2001-2013
</metadata>
<g transform="translate(0.000000,512.000000) scale(0.100000,-0.100000)"
fill="#000000" stroke="none">
<path d="M1305 5094 c-17 -14 -37 -31 -46 -38 -35 -26 -106 -126 -138 -194
-72 -159 -75 -349 -6 -508 20 -44 260 -410 444 -674 36 -52 71 -102 76 -112 6
-9 75 -113 154 -230 80 -117 200 -296 269 -397 l124 -184 -113 -166 c-62 -91
-155 -229 -207 -306 -52 -77 -97 -142 -99 -145 -2 -2 -14 2 -26 10 -92 58
-173 57 -232 -4 -6 -6 -46 -64 -90 -129 -43 -64 -86 -117 -94 -118 -56 -3
-177 -32 -251 -61 -213 -84 -397 -251 -498 -453 -73 -148 -104 -275 -103 -434
1 -454 313 -837 759 -930 119 -25 306 -22 419 7 326 84 584 328 681 644 31
100 36 141 37 288 0 148 -15 229 -67 354 l-28 69 51 74 c66 97 80 133 73 180
-5 34 -41 103 -54 103 -3 0 -18 11 -35 24 -28 22 -29 25 -14 43 9 10 71 100
138 201 68 100 126 182 130 182 4 0 42 -51 84 -112 41 -62 103 -153 137 -203
l62 -89 -29 -23 c-15 -13 -30 -23 -33 -23 -15 0 -52 -74 -55 -107 -3 -49 11
-84 74 -177 l51 -76 -19 -42 c-11 -24 -32 -83 -47 -133 -23 -76 -27 -110 -28
-225 -1 -154 5 -209 35 -306 45 -146 126 -280 234 -389 120 -121 280 -214 442
-256 144 -37 425 -31 503 11 11 6 20 8 20 6 0 -17 203 86 279 142 38 27 150
138 188 184 79 97 152 261 178 400 49 264 -6 514 -161 734 -42 60 -180 204
-195 204 -4 0 -14 6 -21 13 -21 21 -138 87 -193 109 -88 36 -133 48 -238 63
-44 7 -46 9 -127 128 -45 67 -93 130 -107 141 -56 42 -137 38 -199 -10 l-32
-23 -211 314 -212 315 96 142 c53 79 156 231 228 338 73 107 204 301 291 430
88 129 219 324 293 432 74 108 145 223 159 255 76 171 67 375 -24 548 -49 93
-186 226 -208 202 -6 -6 -67 -95 -136 -197 -274 -407 -425 -631 -503 -745 -45
-66 -144 -212 -220 -325 -77 -113 -187 -276 -246 -363 l-107 -157 -119 172
c-66 95 -177 259 -248 363 -71 105 -174 258 -230 340 -56 83 -144 213 -197
290 -52 77 -166 246 -253 375 -87 129 -163 241 -169 247 -9 10 -18 7 -41 -13z
m255 -3625 c93 -25 180 -77 250 -150 152 -159 188 -405 89 -609 -43 -88 -153
-197 -243 -239 -209 -100 -455 -60 -614 101 -83 84 -121 152 -147 260 -92 392
274 743 665 637z m2274 5 c329 -87 496 -449 350 -758 -100 -212 -344 -334
-586 -293 -151 26 -308 147 -377 291 -43 89 -54 140 -54 246 0 114 24 192 89
290 78 119 194 197 349 233 39 10 180 4 229 -9z"/>
</g>
</svg>
